<svg id="Layer_1" xmlns="http://www.w3.org/2000/svg" viewBox="3 -4 20 20"><style>.st0{opacity:0.2;enable-background:new ;} .st1{opacity:0.5;fill:#FFFFFF;enable-background:new ;}</style><path class="st0" d="M13-4C7.5-4 3 .5 3 6s4.5 10 10 10 10-4.5 10-10S18.5-4 13-4zm5.7 7.7l-6 6c-.4.4-1 .4-1.4 0L8.4 6.8c-.4-.4-.4-1 0-1.4.4-.4 1-.4 1.4 0L12 7.5l5.2-5.2c.4-.4 1-.4 1.4 0 .5.4.5 1.1.1 1.4z"/><path class="st1" d="M18.7 3.7l-6 6c-.4.4-1 .4-1.4 0L8.4 6.8c-.4-.4-.4-1 0-1.4.4-.4 1-.4 1.4 0L12 7.5l5.2-5.2c.4-.4 1-.4 1.4 0 .5.4.5 1.1.1 1.4z"/></svg>